<?xml version="1.0" encoding="UTF-8"?>
<svg width="300" height="300" viewBox="0 0 300 300" fill="none" xmlns="http://www.w3.org/2000/svg">
  <!-- Radiant Glow -->
  <circle cx="150" cy="170" r="80" fill="url(#radialGlow)" opacity="0.6" />
  
  <!-- Head -->
  <path d="M90 120 C90 80 210 80 210 120 L210 155 C210 195 90 195 90 155 Z" fill="#f9f9f9" stroke="#e0e0e0" strokeWidth="2" />
  
  <!-- Face Plate -->
  <path d="M115 120 C115 110 185 110 185 120 L185 150 C185 170 115 170 115 150 Z" fill="#303030" />
  
  <!-- Eyes -->
  <ellipse cx="135" cy="135" rx="12" ry="10" fill="#00bfff" filter="url(#glow)" />
  <ellipse cx="165" cy="135" rx="12" ry="10" fill="#00bfff" filter="url(#glow)" />
  
  <!-- Smile -->
  <path d="M138 155 Q150 165 162 155" stroke="#00bfff" strokeWidth="3" strokeLinecap="round" />
  
  <!-- Arms -->
  <line x1="90" y1="140" x2="50" y2="140" stroke="#f9f9f9" strokeWidth="4" strokeLinecap="round" />
  <line x1="210" y1="140" x2="250" y2="140" stroke="#f9f9f9" strokeWidth="4" strokeLinecap="round" />
  <circle cx="50" cy="140" r="5" fill="#f9f9f9" />
  <circle cx="250" cy="140" r="5" fill="#f9f9f9" />
  
  <!-- Body -->
  <path d="M110 195 C110 230 190 230 190 195 L190 155 C190 155 110 155 110 155 Z" fill="#f9f9f9" stroke="#e0e0e0" strokeWidth="2" />
  
  <!-- Center Button -->
  <circle cx="150" cy="195" r="15" fill="#00bfff" filter="url(#smallGlow)" opacity="0.9" />
  <circle cx="150" cy="195" r="8" fill="#f9f9f9" />
  
  <!-- Filters and Gradients -->
  <defs>
    <filter id="glow" x="-50%" y="-50%" width="200%" height="200%">
      <feGaussianBlur stdDeviation="2" result="blur" />
      <feComposite in="SourceGraphic" in2="blur" operator="over" />
    </filter>
    
    <filter id="smallGlow" x="-50%" y="-50%" width="200%" height="200%">
      <feGaussianBlur stdDeviation="1.5" result="blur" />
      <feComposite in="SourceGraphic" in2="blur" operator="over" />
    </filter>
    
    <radialGradient id="radialGlow" cx="50%" cy="50%" r="50%" fx="50%" fy="50%">
      <stop offset="0%" stopColor="#00bfff" stopOpacity="0.3" />
      <stop offset="100%" stopColor="#00bfff" stopOpacity="0" />
    </radialGradient>
  </defs>
</svg>