<?xml version="1.0" encoding="UTF-8"?>
<svg width="96" height="96" viewBox="0 0 100 100" xmlns="http://www.w3.org/2000/svg">
  <!-- Robot head -->
  <rect x="25" y="20" width="50" height="40" rx="10" fill="#e6e6e6" />
  <rect x="30" y="30" width="40" height="20" rx="5" fill="#222" />
  
  <!-- Eyes -->
  <circle cx="40" cy="40" r="5" fill="#6366f1" />
  <circle cx="60" cy="40" r="5" fill="#6366f1" />
  
  <!-- Antenna -->
  <rect x="45" y="10" width="10" height="10" rx="5" fill="#22c55e" />
  <line x1="50" y1="20" x2="50" y2="10" stroke="#888" stroke-width="2" />
  
  <!-- Mouth -->
  <path d="M35,55 Q50,65 65,55" stroke="#222" stroke-width="2" fill="none" />
  
  <!-- Body -->
  <rect x="35" y="60" width="30" height="25" rx="5" fill="#e6e6e6" />
  
  <!-- Control panel on body -->
  <rect x="40" y="65" width="20" height="15" rx="2" fill="#444" />
  
  <!-- Buttons on control panel -->
  <circle cx="45" cy="70" r="2" fill="#f59e0b" />
  <circle cx="55" cy="70" r="2" fill="#ef4444" />
  <circle cx="45" cy="75" r="2" fill="#3b82f6" />
  <circle cx="55" cy="75" r="2" fill="#a855f7" />
  
  <!-- Arms -->
  <rect x="25" y="65" width="10" height="20" rx="5" fill="#d1d1d1" />
  <rect x="65" y="65" width="10" height="20" rx="5" fill="#d1d1d1" />
  
  <!-- Legs -->
  <rect x="38" y="85" width="10" height="10" rx="3" fill="#d1d1d1" />
  <rect x="52" y="85" width="10" height="10" rx="3" fill="#d1d1d1" />
</svg>